<svg width="289" height="90.208" viewBox="0 0 289 90.208" xmlns="http://www.w3.org/2000/svg"><g id="svgGroup"><path d="M 123.8 20.101 L 124.8 20.101 Q 125.594 20.101 125.758 20.731 A 1.473 1.473 0 0 1 125.8 21.101 L 125.8 70.001 A 31.868 31.868 0 0 1 125.302 75.83 Q 124.703 79.046 123.383 81.562 A 15.319 15.319 0 0 1 120.7 85.251 Q 115.791 90.208 105.878 90.208 A 40.83 40.83 0 0 1 105.1 90.201 Q 104.307 90.201 104.143 89.571 A 1.473 1.473 0 0 1 104.1 89.201 L 104.1 88.401 Q 104.1 87.607 104.73 87.444 A 1.473 1.473 0 0 1 105.1 87.401 Q 111.047 87.466 114.944 85.589 A 12.337 12.337 0 0 0 118.5 83.051 Q 122.8 78.601 122.8 69.901 L 122.8 63.901 A 0.682 0.682 0 0 0 122.791 63.782 Q 122.756 63.59 122.6 63.551 Q 122.407 63.503 122.307 63.781 A 0.925 0.925 0 0 0 122.3 63.801 Q 120.5 67.201 117.3 69.051 A 13.671 13.671 0 0 1 112.411 70.716 A 17.811 17.811 0 0 1 109.8 70.901 A 17.148 17.148 0 0 1 104.71 70.177 A 13.946 13.946 0 0 1 99.35 67.101 A 15.313 15.313 0 0 1 94.737 59.003 A 20.053 20.053 0 0 1 94.4 57.101 A 48.125 48.125 0 0 1 94.158 54.542 Q 93.981 52.024 93.925 48.553 A 210.218 210.218 0 0 1 93.9 45.201 Q 93.9 38.69 94.24 34.692 A 47.58 47.58 0 0 1 94.4 33.101 Q 95.2 27.001 99.35 23.151 A 14.295 14.295 0 0 1 107.884 19.395 A 19.09 19.09 0 0 1 109.8 19.301 A 16.265 16.265 0 0 1 113.995 19.823 A 13.635 13.635 0 0 1 117.25 21.151 Q 120.5 23.001 122.3 26.401 A 0.742 0.742 0 0 0 122.341 26.5 Q 122.437 26.692 122.6 26.651 Q 122.775 26.607 122.797 26.372 A 0.769 0.769 0 0 0 122.8 26.301 L 122.8 21.101 Q 122.8 20.307 123.43 20.144 A 1.473 1.473 0 0 1 123.8 20.101 Z M 239.1 0.201 L 240.1 0.201 Q 240.894 0.201 241.058 0.831 A 1.473 1.473 0 0 1 241.1 1.201 L 241.1 69.201 Q 241.1 69.994 240.47 70.158 A 1.473 1.473 0 0 1 240.1 70.201 L 239.1 70.201 Q 238.307 70.201 238.143 69.571 A 1.473 1.473 0 0 1 238.1 69.201 L 238.1 64.301 Q 238.1 64.123 238.047 64.051 A 0.114 0.114 0 0 0 237.95 64.001 A 0.219 0.219 0 0 0 237.799 64.062 Q 237.745 64.112 237.7 64.201 Q 234.1 71.001 225.5 71.001 Q 220.654 71.001 217.346 69.285 A 11.771 11.771 0 0 1 215.5 68.101 A 11.84 11.84 0 0 1 212.853 65.107 Q 211.083 62.332 210 58.001 A 46.388 46.388 0 0 1 208.439 48.018 A 42.425 42.425 0 0 1 208.4 46.201 A 59.42 59.42 0 0 1 208.442 44.035 Q 208.486 42.834 208.576 41.48 A 114.459 114.459 0 0 1 208.7 39.801 A 62.386 62.386 0 0 1 208.967 37.167 Q 209.128 35.868 209.335 34.721 A 33.637 33.637 0 0 1 209.6 33.401 A 27.295 27.295 0 0 1 210.792 29.176 Q 211.636 26.942 212.828 25.254 A 12.509 12.509 0 0 1 215.2 22.701 A 14.157 14.157 0 0 1 220.5 20.084 Q 222.57 19.532 225.019 19.426 A 27.371 27.371 0 0 1 226.2 19.401 A 20.45 20.45 0 0 1 229.069 19.589 Q 230.513 19.794 231.701 20.222 A 9.217 9.217 0 0 1 233.6 21.151 A 10.513 10.513 0 0 1 237.123 25.006 A 13.301 13.301 0 0 1 237.7 26.201 A 0.975 0.975 0 0 0 237.735 26.292 Q 237.823 26.487 237.943 26.453 A 0.153 0.153 0 0 0 237.95 26.451 A 0.179 0.179 0 0 0 238.053 26.359 Q 238.1 26.27 238.1 26.101 L 238.1 1.201 Q 238.1 0.407 238.73 0.244 A 1.473 1.473 0 0 1 239.1 0.201 Z M 286.6 58.701 L 287.5 58.801 A 1.248 1.248 0 0 1 287.942 59.004 A 1.182 1.182 0 0 1 288.15 59.201 Q 288.371 59.466 288.319 59.888 A 1.564 1.564 0 0 1 288.3 60.001 Q 286.9 65.001 282.7 68.001 Q 278.5 71.001 272.7 71.001 A 17.45 17.45 0 0 1 267.413 70.231 A 14.465 14.465 0 0 1 262.15 67.251 A 15.084 15.084 0 0 1 257.198 58.15 A 19.253 19.253 0 0 1 257.1 57.501 A 41.955 41.955 0 0 1 256.815 54.858 Q 256.6 52.11 256.6 48.501 L 256.6 45.101 Q 256.6 37.274 256.939 33.771 A 27.935 27.935 0 0 1 257 33.201 A 15.986 15.986 0 0 1 258.642 27.418 A 14.751 14.751 0 0 1 261.9 23.201 A 14.912 14.912 0 0 1 270.531 19.416 A 19.926 19.926 0 0 1 272.7 19.301 A 19.105 19.105 0 0 1 277.767 19.94 A 14.415 14.415 0 0 1 283.8 23.251 A 15.081 15.081 0 0 1 288.484 31.992 A 19.873 19.873 0 0 1 288.7 33.601 A 40.426 40.426 0 0 1 288.824 35.373 Q 288.959 37.987 288.99 42.594 A 440.331 440.331 0 0 1 289 45.601 Q 289 46.394 288.37 46.558 A 1.473 1.473 0 0 1 288 46.601 L 260 46.601 A 0.576 0.576 0 0 0 259.842 46.621 Q 259.664 46.672 259.617 46.853 A 0.589 0.589 0 0 0 259.6 47.001 A 782.336 782.336 0 0 0 259.605 49.843 Q 259.622 54.526 259.7 56.401 Q 260.2 61.701 263.75 64.951 A 12.236 12.236 0 0 0 270.487 68.045 A 16.66 16.66 0 0 0 272.8 68.201 A 14.778 14.778 0 0 0 277.072 67.606 A 12.398 12.398 0 0 0 280.75 65.801 Q 284.1 63.401 285.4 59.401 Q 285.7 58.501 286.6 58.701 Z M 20.7 36.601 L 3.4 36.601 A 0.576 0.576 0 0 0 3.242 36.621 Q 3.064 36.672 3.017 36.853 A 0.589 0.589 0 0 0 3 37.001 L 3 69.201 Q 3 69.994 2.37 70.158 A 1.473 1.473 0 0 1 2 70.201 L 1 70.201 Q 0.207 70.201 0.043 69.571 A 1.473 1.473 0 0 1 0 69.201 L 0 1.001 Q 0 0.207 0.63 0.044 A 1.473 1.473 0 0 1 1 0.001 L 20.7 0.001 A 17.425 17.425 0 0 1 26.234 0.843 A 14.475 14.475 0 0 1 32.6 5.101 A 17.566 17.566 0 0 1 36.616 13.353 A 25.048 25.048 0 0 1 37.1 18.401 A 24.293 24.293 0 0 1 36.467 24.101 A 16.936 16.936 0 0 1 32.6 31.601 Q 28.1 36.601 20.7 36.601 Z M 47.7 48.901 L 47.7 45.101 Q 47.7 37.273 47.955 33.686 A 39.989 39.989 0 0 1 48 33.101 Q 48.8 26.901 53.1 23.101 A 15.015 15.015 0 0 1 61.35 19.458 A 20.15 20.15 0 0 1 63.9 19.301 A 18.587 18.587 0 0 1 69.157 20.012 A 14.758 14.758 0 0 1 74.85 23.151 Q 79.2 27.001 79.8 33.101 Q 80.2 36.701 80.2 45.101 Q 80.2 53.021 79.861 56.615 A 29.947 29.947 0 0 1 79.8 57.201 Q 79.1 63.301 74.75 67.151 A 15.213 15.213 0 0 1 66.071 70.887 A 20.223 20.223 0 0 1 63.9 71.001 A 18.259 18.259 0 0 1 58.816 70.325 A 14.372 14.372 0 0 1 53.15 67.201 A 15.23 15.23 0 0 1 48.354 58.713 A 19.815 19.815 0 0 1 48.1 57.201 Q 47.799 55.241 47.724 51.519 A 131.821 131.821 0 0 1 47.7 48.901 Z M 140.1 48.901 L 140.1 45.101 Q 140.1 37.273 140.355 33.686 A 39.989 39.989 0 0 1 140.4 33.101 Q 141.2 26.901 145.5 23.101 A 15.015 15.015 0 0 1 153.75 19.458 A 20.15 20.15 0 0 1 156.3 19.301 A 18.587 18.587 0 0 1 161.557 20.012 A 14.758 14.758 0 0 1 167.25 23.151 Q 171.6 27.001 172.2 33.101 Q 172.6 36.701 172.6 45.101 Q 172.6 53.021 172.261 56.615 A 29.947 29.947 0 0 1 172.2 57.201 Q 171.5 63.301 167.15 67.151 A 15.213 15.213 0 0 1 158.471 70.887 A 20.223 20.223 0 0 1 156.3 71.001 A 18.259 18.259 0 0 1 151.216 70.325 A 14.372 14.372 0 0 1 145.55 67.201 A 15.23 15.23 0 0 1 140.754 58.713 A 19.815 19.815 0 0 1 140.5 57.201 Q 140.199 55.241 140.124 51.519 A 131.821 131.821 0 0 1 140.1 48.901 Z M 77.1 51.301 L 77.1 45.201 L 77.1 38.901 Q 77.1 35.699 77.021 34.237 A 19.65 19.65 0 0 0 77 33.901 A 14.254 14.254 0 0 0 75.911 29.519 A 12.039 12.039 0 0 0 72.9 25.351 A 12.516 12.516 0 0 0 65.544 22.18 A 16.645 16.645 0 0 0 63.9 22.101 A 14.731 14.731 0 0 0 59.565 22.712 A 11.929 11.929 0 0 0 54.95 25.351 A 12.405 12.405 0 0 0 51.101 32.451 A 16.414 16.414 0 0 0 50.9 33.901 Q 50.7 36.801 50.7 45.201 A 542.119 542.119 0 0 0 50.711 48.795 Q 50.741 53.234 50.85 55.523 A 41.95 41.95 0 0 0 50.9 56.401 Q 51.4 61.701 54.95 64.951 Q 58.5 68.201 63.9 68.201 A 14.762 14.762 0 0 0 68.353 67.556 A 12.16 12.16 0 0 0 72.9 64.951 A 12.362 12.362 0 0 0 76.827 57.694 A 16.286 16.286 0 0 0 77 56.401 A 30.363 30.363 0 0 0 77.044 55.52 Q 77.094 54.161 77.1 51.857 A 241.678 241.678 0 0 0 77.1 51.301 Z M 169.5 51.301 L 169.5 45.201 L 169.5 38.901 Q 169.5 35.699 169.421 34.237 A 19.65 19.65 0 0 0 169.4 33.901 A 14.254 14.254 0 0 0 168.311 29.519 A 12.039 12.039 0 0 0 165.3 25.351 A 12.516 12.516 0 0 0 157.944 22.18 A 16.645 16.645 0 0 0 156.3 22.101 A 14.731 14.731 0 0 0 151.965 22.712 A 11.929 11.929 0 0 0 147.35 25.351 A 12.405 12.405 0 0 0 143.501 32.451 A 16.414 16.414 0 0 0 143.3 33.901 Q 143.1 36.801 143.1 45.201 A 542.119 542.119 0 0 0 143.111 48.795 Q 143.141 53.234 143.25 55.523 A 41.95 41.95 0 0 0 143.3 56.401 Q 143.8 61.701 147.35 64.951 Q 150.9 68.201 156.3 68.201 A 14.762 14.762 0 0 0 160.753 67.556 A 12.16 12.16 0 0 0 165.3 64.951 A 12.362 12.362 0 0 0 169.227 57.694 A 16.286 16.286 0 0 0 169.4 56.401 A 30.363 30.363 0 0 0 169.444 55.52 Q 169.494 54.161 169.5 51.857 A 241.678 241.678 0 0 0 169.5 51.301 Z M 122.5 56.401 A 95.209 95.209 0 0 0 122.658 53.503 Q 122.791 50.245 122.8 45.834 A 317.841 317.841 0 0 0 122.8 45.201 A 281.491 281.491 0 0 0 122.781 41.87 Q 122.725 37.126 122.5 33.901 A 14.578 14.578 0 0 0 121.532 29.579 A 12.135 12.135 0 0 0 118.75 25.401 A 11.355 11.355 0 0 0 111.549 22.159 A 15.302 15.302 0 0 0 110.2 22.101 A 13.979 13.979 0 0 0 105.837 22.755 A 11.688 11.688 0 0 0 101.4 25.401 A 13.122 13.122 0 0 0 97.466 32.786 A 16.868 16.868 0 0 0 97.3 33.901 Q 96.9 37.601 96.9 45.101 A 163.869 163.869 0 0 0 97.027 51.679 A 129.464 129.464 0 0 0 97.3 56.401 Q 97.8 61.501 101.35 64.851 A 12.181 12.181 0 0 0 109.222 68.171 A 16.028 16.028 0 0 0 110.2 68.201 A 13.648 13.648 0 0 0 114.176 67.648 A 10.788 10.788 0 0 0 118.8 64.851 A 12.833 12.833 0 0 0 122.378 57.496 A 16.488 16.488 0 0 0 122.5 56.401 Z M 237.896 46.015 A 89.602 89.602 0 0 0 237.9 45.201 Q 237.9 35.632 235.803 30.162 A 19.651 19.651 0 0 0 235.7 29.901 A 18.908 18.908 0 0 0 234.449 27.243 Q 233.3 25.251 231.8 24.001 Q 229.4 22.001 225.4 22.001 A 14.803 14.803 0 0 0 222.468 22.275 Q 220.206 22.732 218.55 23.951 Q 215.9 25.901 214.2 29.601 Q 211.6 35.601 211.6 45.201 A 71.956 71.956 0 0 0 211.795 50.685 Q 212.225 56.288 213.6 60.001 A 20.238 20.238 0 0 0 215.009 62.856 Q 215.892 64.322 216.951 65.401 A 10.805 10.805 0 0 0 217.95 66.301 Q 220.227 68.106 223.945 68.359 A 18.435 18.435 0 0 0 225.2 68.401 A 13.956 13.956 0 0 0 227.971 68.142 Q 230.289 67.672 231.9 66.351 Q 234.4 64.301 235.9 60.201 Q 237.815 55.032 237.896 46.015 Z M 20.6 2.801 L 3.4 2.801 A 0.576 0.576 0 0 0 3.242 2.821 Q 3.064 2.872 3.017 3.053 A 0.589 0.589 0 0 0 3 3.201 L 3 33.501 A 0.576 0.576 0 0 0 3.02 33.659 Q 3.071 33.837 3.252 33.884 A 0.589 0.589 0 0 0 3.4 33.901 L 20.6 33.901 A 14.16 14.16 0 0 0 25.24 33.172 A 11.893 11.893 0 0 0 30.4 29.651 Q 34.078 25.426 34.1 18.483 A 26.443 26.443 0 0 0 34.1 18.401 A 21.555 21.555 0 0 0 33.58 13.531 A 14.805 14.805 0 0 0 30.4 7.101 A 12.105 12.105 0 0 0 21.539 2.827 A 16.543 16.543 0 0 0 20.6 2.801 Z M 189.3 69.201 L 189.3 21.101 Q 189.3 20.307 189.93 20.144 A 1.473 1.473 0 0 1 190.3 20.101 L 191.3 20.101 Q 192.094 20.101 192.258 20.731 A 1.473 1.473 0 0 1 192.3 21.101 L 192.3 69.201 Q 192.3 69.994 191.67 70.158 A 1.473 1.473 0 0 1 191.3 70.201 L 190.3 70.201 Q 189.507 70.201 189.343 69.571 A 1.473 1.473 0 0 1 189.3 69.201 Z M 260 43.001 L 285.6 43.001 A 0.576 0.576 0 0 0 285.758 42.981 Q 285.936 42.93 285.983 42.749 A 0.589 0.589 0 0 0 286 42.601 A 313.826 313.826 0 0 0 285.988 39.709 Q 285.954 36.106 285.831 34.221 A 29.771 29.771 0 0 0 285.8 33.801 Q 285.2 28.601 281.65 25.301 A 12.239 12.239 0 0 0 273.949 22.041 A 16.144 16.144 0 0 0 272.8 22.001 A 15.219 15.219 0 0 0 268.661 22.537 A 11.698 11.698 0 0 0 263.8 25.251 A 12.806 12.806 0 0 0 259.992 32.04 A 16.888 16.888 0 0 0 259.7 33.801 A 82.864 82.864 0 0 0 259.657 35.275 Q 259.606 37.591 259.601 41.626 A 737.817 737.817 0 0 0 259.6 42.601 A 0.576 0.576 0 0 0 259.62 42.759 Q 259.671 42.937 259.852 42.984 A 0.589 0.589 0 0 0 260 43.001 Z M 189.321 8.628 A 4.436 4.436 0 0 0 190.9 8.901 A 5.525 5.525 0 0 0 191.491 8.87 A 4.048 4.048 0 0 0 194 7.701 A 3.939 3.939 0 0 0 194.994 6.054 A 4.909 4.909 0 0 0 195.2 4.601 A 5.316 5.316 0 0 0 195.199 4.486 A 4.048 4.048 0 0 0 194 1.601 A 3.939 3.939 0 0 0 192.354 0.607 A 4.909 4.909 0 0 0 190.9 0.401 A 5.316 5.316 0 0 0 190.785 0.402 A 4.048 4.048 0 0 0 187.9 1.601 A 3.986 3.986 0 0 0 186.973 3.022 A 4.436 4.436 0 0 0 186.7 4.601 A 5.525 5.525 0 0 0 186.731 5.192 A 4.048 4.048 0 0 0 187.9 7.701 A 3.986 3.986 0 0 0 189.321 8.628 Z" fill="#ffffff" vector-effect="non-scaling-stroke"/></g></svg>