<svg id="Layer_1" data-name="Layer 1" xmlns="http://www.w3.org/2000/svg" viewBox="0 0 499.85 512"><title>view-details</title><path d="M75.22,112.59H303.57v37H75.22Z" transform="translate(-6.08)" style="fill:#fff"/><path d="M415.42,390.89a80.49,80.49,0,1,0-30.55,30.6L475.38,512l30.54-30.58Zm-36.3-5.75c-18.09,18.1-49.83,18.1-67.92,0a48.06,48.06,0,1,1,67.92,0Z" transform="translate(-6.08)" style="fill:#fff"/><path d="M369.91,452.26H51.52a9.12,9.12,0,0,1-9.12-9.1V45.45a9.11,9.11,0,0,1,9.12-9.13H369.91a9.09,9.09,0,0,1,9.1,9.13V248.33a95.21,95.21,0,0,1,36.35,16.56V45.45A45.49,45.49,0,0,0,369.91,0H51.52A45.5,45.5,0,0,0,6.08,45.45V443.16a45.49,45.49,0,0,0,45.44,45.42H369.91c19,0,28-4.49,34.77-21.08L388.2,451C382.12,453.57,372.52,452.26,369.91,452.26Z" transform="translate(-6.08)" style="fill:#fff"/><path d="M75.22,216.92H303.57v37H75.22Z" transform="translate(-6.08)" style="fill:#fff"/></svg>